<mxfile host="app.diagrams.net" modified="2020-11-09T13:50:27.566Z" agent="5.0 (Macintosh; Intel Mac OS X 11_0_0) AppleWebKit/537.36 (KHTML, like Gecko) Chrome/86.0.4240.183 Safari/537.36" etag="Krw0bf7e8ZLKstoDZmHh" version="13.9.2" type="github">
  <diagram id="nRmP9zLZqmWxdJArIpyb" name="Page-1">
    <mxGraphModel dx="1351" dy="841" grid="1" gridSize="10" guides="1" tooltips="1" connect="1" arrows="1" fold="1" page="1" pageScale="1" pageWidth="850" pageHeight="1100" math="0" shadow="0">
      <root>
        <mxCell id="0" />
        <mxCell id="1" parent="0" />
        <mxCell id="Umk6AC-DhXNOOqIBitLX-2" value="&lt;font style=&quot;font-size: 24px&quot;&gt;Merchant App Fai Zi Marketplace&lt;/font&gt;" style="text;html=1;strokeColor=none;fillColor=none;align=center;verticalAlign=middle;whiteSpace=wrap;rounded=0;" vertex="1" parent="1">
          <mxGeometry x="130" y="20" width="560" height="20" as="geometry" />
        </mxCell>
        <mxCell id="Umk6AC-DhXNOOqIBitLX-10" style="edgeStyle=orthogonalEdgeStyle;rounded=0;orthogonalLoop=1;jettySize=auto;html=1;entryX=0;entryY=0.5;entryDx=0;entryDy=0;" edge="1" parent="1" source="Umk6AC-DhXNOOqIBitLX-6" target="Umk6AC-DhXNOOqIBitLX-11">
          <mxGeometry relative="1" as="geometry">
            <mxPoint x="141.01999999999998" y="110" as="targetPoint" />
          </mxGeometry>
        </mxCell>
        <mxCell id="Umk6AC-DhXNOOqIBitLX-6" value="Merchant" style="shape=umlActor;verticalLabelPosition=bottom;verticalAlign=top;html=1;outlineConnect=0;" vertex="1" parent="1">
          <mxGeometry x="40" y="170" width="30" height="60" as="geometry" />
        </mxCell>
        <mxCell id="Umk6AC-DhXNOOqIBitLX-15" style="edgeStyle=orthogonalEdgeStyle;rounded=0;orthogonalLoop=1;jettySize=auto;html=1;" edge="1" parent="1" source="Umk6AC-DhXNOOqIBitLX-11">
          <mxGeometry relative="1" as="geometry">
            <mxPoint x="260.00000000000006" y="150" as="targetPoint" />
          </mxGeometry>
        </mxCell>
        <mxCell id="Umk6AC-DhXNOOqIBitLX-18" style="edgeStyle=orthogonalEdgeStyle;rounded=0;orthogonalLoop=1;jettySize=auto;html=1;entryX=0.5;entryY=0;entryDx=0;entryDy=0;" edge="1" parent="1" source="Umk6AC-DhXNOOqIBitLX-11" target="Umk6AC-DhXNOOqIBitLX-17">
          <mxGeometry relative="1" as="geometry" />
        </mxCell>
        <mxCell id="Umk6AC-DhXNOOqIBitLX-11" value="is logged&amp;nbsp;&lt;br&gt;in?" style="rhombus;whiteSpace=wrap;html=1;" vertex="1" parent="1">
          <mxGeometry x="180" y="170" width="80" height="80" as="geometry" />
        </mxCell>
        <mxCell id="Umk6AC-DhXNOOqIBitLX-28" style="edgeStyle=orthogonalEdgeStyle;rounded=0;orthogonalLoop=1;jettySize=auto;html=1;" edge="1" parent="1" source="Umk6AC-DhXNOOqIBitLX-12">
          <mxGeometry relative="1" as="geometry">
            <mxPoint x="399.9999999999998" y="120" as="targetPoint" />
          </mxGeometry>
        </mxCell>
        <mxCell id="Umk6AC-DhXNOOqIBitLX-12" value="Dashboard&lt;br&gt;Screen" style="whiteSpace=wrap;html=1;aspect=fixed;" vertex="1" parent="1">
          <mxGeometry x="260" y="90" width="80" height="80" as="geometry" />
        </mxCell>
        <mxCell id="Umk6AC-DhXNOOqIBitLX-16" value="yes" style="text;html=1;align=center;verticalAlign=middle;resizable=0;points=[];autosize=1;" vertex="1" parent="1">
          <mxGeometry x="215" y="130" width="30" height="20" as="geometry" />
        </mxCell>
        <mxCell id="Umk6AC-DhXNOOqIBitLX-39" style="edgeStyle=orthogonalEdgeStyle;rounded=0;orthogonalLoop=1;jettySize=auto;html=1;entryX=0.5;entryY=0;entryDx=0;entryDy=0;" edge="1" parent="1" source="Umk6AC-DhXNOOqIBitLX-17" target="Umk6AC-DhXNOOqIBitLX-38">
          <mxGeometry relative="1" as="geometry" />
        </mxCell>
        <mxCell id="Umk6AC-DhXNOOqIBitLX-45" style="edgeStyle=orthogonalEdgeStyle;rounded=0;orthogonalLoop=1;jettySize=auto;html=1;" edge="1" parent="1" source="Umk6AC-DhXNOOqIBitLX-17">
          <mxGeometry relative="1" as="geometry">
            <mxPoint x="100" y="340" as="targetPoint" />
          </mxGeometry>
        </mxCell>
        <mxCell id="Umk6AC-DhXNOOqIBitLX-17" value="Login&lt;br&gt;Screen" style="whiteSpace=wrap;html=1;aspect=fixed;" vertex="1" parent="1">
          <mxGeometry x="180" y="300" width="80" height="80" as="geometry" />
        </mxCell>
        <mxCell id="Umk6AC-DhXNOOqIBitLX-19" value="No" style="text;html=1;align=center;verticalAlign=middle;resizable=0;points=[];autosize=1;" vertex="1" parent="1">
          <mxGeometry x="215" y="260" width="30" height="20" as="geometry" />
        </mxCell>
        <mxCell id="Umk6AC-DhXNOOqIBitLX-33" style="edgeStyle=orthogonalEdgeStyle;rounded=0;orthogonalLoop=1;jettySize=auto;html=1;" edge="1" parent="1" source="Umk6AC-DhXNOOqIBitLX-23">
          <mxGeometry relative="1" as="geometry">
            <mxPoint x="400" y="135" as="targetPoint" />
          </mxGeometry>
        </mxCell>
        <mxCell id="Umk6AC-DhXNOOqIBitLX-62" style="edgeStyle=orthogonalEdgeStyle;rounded=0;orthogonalLoop=1;jettySize=auto;html=1;" edge="1" parent="1" source="Umk6AC-DhXNOOqIBitLX-23">
          <mxGeometry relative="1" as="geometry">
            <mxPoint x="600" y="160" as="targetPoint" />
          </mxGeometry>
        </mxCell>
        <mxCell id="Umk6AC-DhXNOOqIBitLX-23" value="Orders Screen" style="whiteSpace=wrap;html=1;aspect=fixed;" vertex="1" parent="1">
          <mxGeometry x="450" y="95" width="80" height="80" as="geometry" />
        </mxCell>
        <mxCell id="Umk6AC-DhXNOOqIBitLX-34" style="edgeStyle=orthogonalEdgeStyle;rounded=0;orthogonalLoop=1;jettySize=auto;html=1;" edge="1" parent="1" source="Umk6AC-DhXNOOqIBitLX-24">
          <mxGeometry relative="1" as="geometry">
            <mxPoint x="400" y="290" as="targetPoint" />
          </mxGeometry>
        </mxCell>
        <mxCell id="Umk6AC-DhXNOOqIBitLX-74" style="edgeStyle=orthogonalEdgeStyle;rounded=0;orthogonalLoop=1;jettySize=auto;html=1;" edge="1" parent="1" source="Umk6AC-DhXNOOqIBitLX-24">
          <mxGeometry relative="1" as="geometry">
            <mxPoint x="600" y="290" as="targetPoint" />
          </mxGeometry>
        </mxCell>
        <mxCell id="Umk6AC-DhXNOOqIBitLX-24" value="Earnings&lt;br&gt;Screen" style="whiteSpace=wrap;html=1;aspect=fixed;" vertex="1" parent="1">
          <mxGeometry x="450" y="250" width="80" height="80" as="geometry" />
        </mxCell>
        <mxCell id="Umk6AC-DhXNOOqIBitLX-35" style="edgeStyle=orthogonalEdgeStyle;rounded=0;orthogonalLoop=1;jettySize=auto;html=1;" edge="1" parent="1" source="Umk6AC-DhXNOOqIBitLX-25">
          <mxGeometry relative="1" as="geometry">
            <mxPoint x="400" y="460" as="targetPoint" />
          </mxGeometry>
        </mxCell>
        <mxCell id="Umk6AC-DhXNOOqIBitLX-76" style="edgeStyle=orthogonalEdgeStyle;rounded=0;orthogonalLoop=1;jettySize=auto;html=1;" edge="1" parent="1" source="Umk6AC-DhXNOOqIBitLX-25">
          <mxGeometry relative="1" as="geometry">
            <mxPoint x="610" y="460" as="targetPoint" />
          </mxGeometry>
        </mxCell>
        <mxCell id="Umk6AC-DhXNOOqIBitLX-25" value="Delivery&lt;br&gt;Screen" style="whiteSpace=wrap;html=1;aspect=fixed;" vertex="1" parent="1">
          <mxGeometry x="450" y="420" width="80" height="80" as="geometry" />
        </mxCell>
        <mxCell id="Umk6AC-DhXNOOqIBitLX-36" style="edgeStyle=orthogonalEdgeStyle;rounded=0;orthogonalLoop=1;jettySize=auto;html=1;" edge="1" parent="1" source="Umk6AC-DhXNOOqIBitLX-26">
          <mxGeometry relative="1" as="geometry">
            <mxPoint x="400" y="620" as="targetPoint" />
          </mxGeometry>
        </mxCell>
        <mxCell id="Umk6AC-DhXNOOqIBitLX-82" style="edgeStyle=orthogonalEdgeStyle;rounded=0;orthogonalLoop=1;jettySize=auto;html=1;entryX=0;entryY=0.25;entryDx=0;entryDy=0;" edge="1" parent="1" source="Umk6AC-DhXNOOqIBitLX-26" target="Umk6AC-DhXNOOqIBitLX-81">
          <mxGeometry relative="1" as="geometry" />
        </mxCell>
        <mxCell id="Umk6AC-DhXNOOqIBitLX-84" style="edgeStyle=orthogonalEdgeStyle;rounded=0;orthogonalLoop=1;jettySize=auto;html=1;entryX=0;entryY=0.25;entryDx=0;entryDy=0;" edge="1" parent="1" source="Umk6AC-DhXNOOqIBitLX-26" target="Umk6AC-DhXNOOqIBitLX-83">
          <mxGeometry relative="1" as="geometry" />
        </mxCell>
        <mxCell id="Umk6AC-DhXNOOqIBitLX-86" style="edgeStyle=orthogonalEdgeStyle;rounded=0;orthogonalLoop=1;jettySize=auto;html=1;entryX=0;entryY=0.5;entryDx=0;entryDy=0;" edge="1" parent="1" source="Umk6AC-DhXNOOqIBitLX-26" target="Umk6AC-DhXNOOqIBitLX-85">
          <mxGeometry relative="1" as="geometry" />
        </mxCell>
        <mxCell id="Umk6AC-DhXNOOqIBitLX-90" style="edgeStyle=orthogonalEdgeStyle;rounded=0;orthogonalLoop=1;jettySize=auto;html=1;entryX=0;entryY=0.75;entryDx=0;entryDy=0;" edge="1" parent="1" source="Umk6AC-DhXNOOqIBitLX-26" target="Umk6AC-DhXNOOqIBitLX-88">
          <mxGeometry relative="1" as="geometry" />
        </mxCell>
        <mxCell id="Umk6AC-DhXNOOqIBitLX-26" value="Inventory Screen" style="whiteSpace=wrap;html=1;aspect=fixed;" vertex="1" parent="1">
          <mxGeometry x="450" y="580" width="80" height="80" as="geometry" />
        </mxCell>
        <mxCell id="Umk6AC-DhXNOOqIBitLX-37" style="edgeStyle=orthogonalEdgeStyle;rounded=0;orthogonalLoop=1;jettySize=auto;html=1;" edge="1" parent="1" source="Umk6AC-DhXNOOqIBitLX-27">
          <mxGeometry relative="1" as="geometry">
            <mxPoint x="400" y="820" as="targetPoint" />
          </mxGeometry>
        </mxCell>
        <mxCell id="Umk6AC-DhXNOOqIBitLX-91" style="edgeStyle=orthogonalEdgeStyle;rounded=0;orthogonalLoop=1;jettySize=auto;html=1;" edge="1" parent="1" source="Umk6AC-DhXNOOqIBitLX-27">
          <mxGeometry relative="1" as="geometry">
            <mxPoint x="140.00000000000023" y="819.9999999999998" as="targetPoint" />
          </mxGeometry>
        </mxCell>
        <mxCell id="Umk6AC-DhXNOOqIBitLX-27" value="Support Screen" style="whiteSpace=wrap;html=1;aspect=fixed;" vertex="1" parent="1">
          <mxGeometry x="255" y="780" width="80" height="80" as="geometry" />
        </mxCell>
        <mxCell id="Umk6AC-DhXNOOqIBitLX-30" value="" style="endArrow=classic;startArrow=classic;html=1;" edge="1" parent="1">
          <mxGeometry width="50" height="50" relative="1" as="geometry">
            <mxPoint x="400" y="880" as="sourcePoint" />
            <mxPoint x="400" y="80" as="targetPoint" />
          </mxGeometry>
        </mxCell>
        <mxCell id="Umk6AC-DhXNOOqIBitLX-40" style="edgeStyle=orthogonalEdgeStyle;rounded=0;orthogonalLoop=1;jettySize=auto;html=1;" edge="1" parent="1" source="Umk6AC-DhXNOOqIBitLX-38">
          <mxGeometry relative="1" as="geometry">
            <mxPoint x="225.00000000000023" y="570" as="targetPoint" />
          </mxGeometry>
        </mxCell>
        <mxCell id="Umk6AC-DhXNOOqIBitLX-43" style="edgeStyle=orthogonalEdgeStyle;rounded=0;orthogonalLoop=1;jettySize=auto;html=1;" edge="1" parent="1" source="Umk6AC-DhXNOOqIBitLX-38">
          <mxGeometry relative="1" as="geometry">
            <mxPoint x="319.9999999999998" y="170" as="targetPoint" />
          </mxGeometry>
        </mxCell>
        <mxCell id="Umk6AC-DhXNOOqIBitLX-38" value="is email/pass&lt;br&gt;correct?" style="rhombus;whiteSpace=wrap;html=1;" vertex="1" parent="1">
          <mxGeometry x="170" y="440" width="90" height="90" as="geometry" />
        </mxCell>
        <mxCell id="Umk6AC-DhXNOOqIBitLX-41" value="Show Dialog" style="ellipse;whiteSpace=wrap;html=1;" vertex="1" parent="1">
          <mxGeometry x="180" y="580" width="90" height="60" as="geometry" />
        </mxCell>
        <mxCell id="Umk6AC-DhXNOOqIBitLX-42" value="No" style="text;html=1;align=center;verticalAlign=middle;resizable=0;points=[];autosize=1;" vertex="1" parent="1">
          <mxGeometry x="225" y="530" width="30" height="20" as="geometry" />
        </mxCell>
        <mxCell id="Umk6AC-DhXNOOqIBitLX-44" value="yes&lt;br&gt;" style="text;html=1;align=center;verticalAlign=middle;resizable=0;points=[];autosize=1;" vertex="1" parent="1">
          <mxGeometry x="260" y="460" width="30" height="20" as="geometry" />
        </mxCell>
        <mxCell id="Umk6AC-DhXNOOqIBitLX-46" value="new user" style="text;html=1;align=center;verticalAlign=middle;resizable=0;points=[];autosize=1;" vertex="1" parent="1">
          <mxGeometry x="110" y="340" width="60" height="20" as="geometry" />
        </mxCell>
        <mxCell id="Umk6AC-DhXNOOqIBitLX-48" style="edgeStyle=orthogonalEdgeStyle;rounded=0;orthogonalLoop=1;jettySize=auto;html=1;" edge="1" parent="1" source="Umk6AC-DhXNOOqIBitLX-47">
          <mxGeometry relative="1" as="geometry">
            <mxPoint x="55" y="440" as="targetPoint" />
          </mxGeometry>
        </mxCell>
        <mxCell id="Umk6AC-DhXNOOqIBitLX-47" value="Register&lt;br&gt;Screen" style="whiteSpace=wrap;html=1;aspect=fixed;" vertex="1" parent="1">
          <mxGeometry x="15" y="300" width="80" height="80" as="geometry" />
        </mxCell>
        <mxCell id="Umk6AC-DhXNOOqIBitLX-50" style="edgeStyle=orthogonalEdgeStyle;rounded=0;orthogonalLoop=1;jettySize=auto;html=1;entryX=0;entryY=0.5;entryDx=0;entryDy=0;" edge="1" parent="1" source="Umk6AC-DhXNOOqIBitLX-49" target="Umk6AC-DhXNOOqIBitLX-41">
          <mxGeometry relative="1" as="geometry" />
        </mxCell>
        <mxCell id="Umk6AC-DhXNOOqIBitLX-52" style="edgeStyle=orthogonalEdgeStyle;rounded=0;orthogonalLoop=1;jettySize=auto;html=1;" edge="1" parent="1" source="Umk6AC-DhXNOOqIBitLX-49">
          <mxGeometry relative="1" as="geometry">
            <mxPoint x="62.5" y="680.0000000000002" as="targetPoint" />
          </mxGeometry>
        </mxCell>
        <mxCell id="Umk6AC-DhXNOOqIBitLX-49" value="is entered&lt;br&gt;detail&lt;br&gt;valid?" style="rhombus;whiteSpace=wrap;html=1;" vertex="1" parent="1">
          <mxGeometry x="15" y="450" width="95" height="90" as="geometry" />
        </mxCell>
        <mxCell id="Umk6AC-DhXNOOqIBitLX-51" value="no" style="text;html=1;align=center;verticalAlign=middle;resizable=0;points=[];autosize=1;" vertex="1" parent="1">
          <mxGeometry x="145" y="520" width="30" height="20" as="geometry" />
        </mxCell>
        <mxCell id="Umk6AC-DhXNOOqIBitLX-56" style="edgeStyle=orthogonalEdgeStyle;rounded=0;orthogonalLoop=1;jettySize=auto;html=1;entryX=1;entryY=1;entryDx=0;entryDy=0;" edge="1" parent="1" source="Umk6AC-DhXNOOqIBitLX-53" target="Umk6AC-DhXNOOqIBitLX-12">
          <mxGeometry relative="1" as="geometry" />
        </mxCell>
        <mxCell id="Umk6AC-DhXNOOqIBitLX-53" value="Create New User - Send Email Verification" style="rounded=1;whiteSpace=wrap;html=1;" vertex="1" parent="1">
          <mxGeometry x="15" y="690" width="120" height="60" as="geometry" />
        </mxCell>
        <mxCell id="Umk6AC-DhXNOOqIBitLX-57" value="succes" style="text;html=1;align=center;verticalAlign=middle;resizable=0;points=[];autosize=1;" vertex="1" parent="1">
          <mxGeometry x="160" y="690" width="50" height="20" as="geometry" />
        </mxCell>
        <mxCell id="Umk6AC-DhXNOOqIBitLX-59" value="This will show list of orders. &lt;br&gt;User is able to filter order by status&lt;br&gt;1. Canceled Orders&lt;br&gt;2. Delayed Orders&lt;br&gt;3. Completed Orders&amp;nbsp;" style="text;html=1;align=center;verticalAlign=middle;resizable=0;points=[];autosize=1;" vertex="1" parent="1">
          <mxGeometry x="540" y="40" width="200" height="80" as="geometry" />
        </mxCell>
        <mxCell id="Umk6AC-DhXNOOqIBitLX-64" style="edgeStyle=orthogonalEdgeStyle;rounded=0;orthogonalLoop=1;jettySize=auto;html=1;" edge="1" parent="1" source="Umk6AC-DhXNOOqIBitLX-63">
          <mxGeometry relative="1" as="geometry">
            <mxPoint x="780" y="840.0000000000002" as="targetPoint" />
          </mxGeometry>
        </mxCell>
        <mxCell id="Umk6AC-DhXNOOqIBitLX-63" value="Ability to Reject or Accept Order." style="ellipse;whiteSpace=wrap;html=1;" vertex="1" parent="1">
          <mxGeometry x="610" y="120" width="120" height="80" as="geometry" />
        </mxCell>
        <mxCell id="Umk6AC-DhXNOOqIBitLX-68" style="edgeStyle=orthogonalEdgeStyle;rounded=0;orthogonalLoop=1;jettySize=auto;html=1;entryX=1;entryY=0.5;entryDx=0;entryDy=0;" edge="1" parent="1" source="Umk6AC-DhXNOOqIBitLX-65" target="Umk6AC-DhXNOOqIBitLX-67">
          <mxGeometry relative="1" as="geometry" />
        </mxCell>
        <mxCell id="Umk6AC-DhXNOOqIBitLX-65" value="is accepted?" style="rhombus;whiteSpace=wrap;html=1;" vertex="1" parent="1">
          <mxGeometry x="730" y="850" width="100" height="90" as="geometry" />
        </mxCell>
        <mxCell id="Umk6AC-DhXNOOqIBitLX-70" style="edgeStyle=orthogonalEdgeStyle;rounded=0;orthogonalLoop=1;jettySize=auto;html=1;" edge="1" parent="1" source="Umk6AC-DhXNOOqIBitLX-67">
          <mxGeometry relative="1" as="geometry">
            <mxPoint x="420.0000000000002" y="1030.0000000000002" as="targetPoint" />
          </mxGeometry>
        </mxCell>
        <mxCell id="Umk6AC-DhXNOOqIBitLX-67" value="Order&lt;br&gt;Tracking&lt;br&gt;Screen" style="whiteSpace=wrap;html=1;aspect=fixed;" vertex="1" parent="1">
          <mxGeometry x="520" y="990" width="80" height="80" as="geometry" />
        </mxCell>
        <mxCell id="Umk6AC-DhXNOOqIBitLX-69" value="yes" style="text;html=1;align=center;verticalAlign=middle;resizable=0;points=[];autosize=1;" vertex="1" parent="1">
          <mxGeometry x="680" y="950" width="30" height="20" as="geometry" />
        </mxCell>
        <mxCell id="Umk6AC-DhXNOOqIBitLX-72" style="edgeStyle=orthogonalEdgeStyle;rounded=0;orthogonalLoop=1;jettySize=auto;html=1;" edge="1" parent="1" source="Umk6AC-DhXNOOqIBitLX-71">
          <mxGeometry relative="1" as="geometry">
            <mxPoint x="180.00000000000023" y="1040.0000000000002" as="targetPoint" />
          </mxGeometry>
        </mxCell>
        <mxCell id="Umk6AC-DhXNOOqIBitLX-71" value="Assign Delivery Boy" style="rounded=1;whiteSpace=wrap;html=1;" vertex="1" parent="1">
          <mxGeometry x="290" y="1010" width="120" height="60" as="geometry" />
        </mxCell>
        <mxCell id="Umk6AC-DhXNOOqIBitLX-73" value="Track Order Google&amp;nbsp;&lt;br&gt;Maps" style="whiteSpace=wrap;html=1;aspect=fixed;" vertex="1" parent="1">
          <mxGeometry x="80" y="1000" width="80" height="80" as="geometry" />
        </mxCell>
        <mxCell id="Umk6AC-DhXNOOqIBitLX-75" value="List of Earning Associated&amp;nbsp;&lt;br&gt;with&lt;br&gt;Old orders" style="whiteSpace=wrap;html=1;aspect=fixed;" vertex="1" parent="1">
          <mxGeometry x="610" y="260" width="80" height="80" as="geometry" />
        </mxCell>
        <mxCell id="Umk6AC-DhXNOOqIBitLX-80" style="edgeStyle=orthogonalEdgeStyle;rounded=0;orthogonalLoop=1;jettySize=auto;html=1;" edge="1" parent="1" source="Umk6AC-DhXNOOqIBitLX-77">
          <mxGeometry relative="1" as="geometry">
            <mxPoint x="710" y="880.0000000000002" as="targetPoint" />
          </mxGeometry>
        </mxCell>
        <mxCell id="Umk6AC-DhXNOOqIBitLX-77" value="Ongoing Delivery" style="whiteSpace=wrap;html=1;aspect=fixed;" vertex="1" parent="1">
          <mxGeometry x="620" y="430" width="80" height="80" as="geometry" />
        </mxCell>
        <mxCell id="Umk6AC-DhXNOOqIBitLX-81" value="Manage Business&lt;br&gt;Information" style="rounded=0;whiteSpace=wrap;html=1;" vertex="1" parent="1">
          <mxGeometry x="580" y="560" width="120" height="60" as="geometry" />
        </mxCell>
        <mxCell id="Umk6AC-DhXNOOqIBitLX-83" value="Read/Add/&lt;br&gt;Remove/Update&lt;br&gt;Products" style="rounded=0;whiteSpace=wrap;html=1;" vertex="1" parent="1">
          <mxGeometry x="580" y="630" width="120" height="60" as="geometry" />
        </mxCell>
        <mxCell id="Umk6AC-DhXNOOqIBitLX-85" value="CRUD Category" style="rounded=0;whiteSpace=wrap;html=1;" vertex="1" parent="1">
          <mxGeometry x="570" y="700" width="120" height="60" as="geometry" />
        </mxCell>
        <mxCell id="Umk6AC-DhXNOOqIBitLX-88" value="Other info associated&lt;br&gt;with inventory" style="rounded=0;whiteSpace=wrap;html=1;" vertex="1" parent="1">
          <mxGeometry x="560" y="780" width="120" height="60" as="geometry" />
        </mxCell>
        <mxCell id="Umk6AC-DhXNOOqIBitLX-92" value="Reply Support Message of Consumer.&lt;br&gt;&lt;br&gt;Manage Reviews" style="whiteSpace=wrap;html=1;aspect=fixed;" vertex="1" parent="1">
          <mxGeometry x="50" y="810" width="100" height="100" as="geometry" />
        </mxCell>
      </root>
    </mxGraphModel>
  </diagram>
</mxfile>
